<?xml version="1.0" standalone="no"?>
<!DOCTYPE svg PUBLIC "-//W3C//DTD SVG 20010904//EN"
 "http://www.w3.org/TR/2001/REC-SVG-20010904/DTD/svg10.dtd">
<svg version="1.0" xmlns="http://www.w3.org/2000/svg"
 width="500.000000pt" height="500.000000pt" viewBox="0 0 500.000000 500.000000"
 preserveAspectRatio="xMidYMid meet">

<g transform="translate(0.000000,500.000000) scale(0.100000,-0.100000)"
fill="#000000" stroke="none">
<path d="M1160 2489 c-143 -21 -265 -102 -344 -228 -35 -56 -66 -153 -65 -203
1 -38 3 -35 10 20 26 202 199 372 409 402 41 6 76 13 79 15 6 6 -20 5 -89 -6z"/>
<path d="M1310 2480 c89 -16 210 -81 268 -145 93 -101 140 -235 129 -361 -7
-73 -37 -163 -72 -216 -14 -20 -25 -40 -25 -43 0 -3 41 -5 91 -5 57 0 88 -4
84 -10 -4 -6 -200 -10 -556 -10 -359 0 -549 3 -549 10 0 6 35 10 85 10 53 0
85 4 85 11 0 5 -11 27 -25 47 -30 43 -64 148 -66 201 -1 27 -3 30 -6 11 -8
-38 16 -129 48 -189 16 -30 29 -58 29 -63 0 -4 -36 -8 -81 -8 -71 0 -80 -2
-77 -17 3 -17 38 -18 563 -18 525 0 560 1 563 18 3 15 -6 17 -83 17 -48 0 -85
3 -83 8 2 4 16 31 31 59 99 190 66 410 -85 563 -75 75 -181 130 -266 135 l-57
4 55 -9z"/>
<path d="M1080 2440 c-272 -97 -392 -442 -233 -670 l39 -55 347 -3 347 -2 34
53 c87 136 98 305 30 445 -15 30 -53 82 -85 116 -71 76 -167 125 -256 131
l-58 4 53 -8 c29 -5 77 -19 107 -31 l55 -22 0 -149 c0 -82 3 -149 8 -149 4 0
6 63 4 141 -2 97 0 139 7 134 7 -4 12 -56 13 -128 l2 -122 3 118 c2 64 8 117
12 117 5 0 28 -21 51 -47 139 -158 156 -392 40 -552 l-30 -41 -79 0 -79 0 -22
65 c-20 59 -20 66 -6 81 18 17 21 55 7 70 -6 5 2 51 19 117 l28 107 -37 0
c-20 0 -43 -6 -49 -12 -10 -10 -17 -10 -32 0 -11 6 -36 12 -56 12 -29 0 -34
-3 -30 -17 19 -63 46 -170 46 -180 0 -9 -18 -13 -58 -13 -32 0 -63 -5 -70 -12
-18 -18 -15 -66 5 -76 15 -9 14 -15 -7 -76 l-24 -66 -43 0 -43 0 0 39 c0 30 4
40 20 44 18 5 20 14 20 111 l0 106 -64 0 c-59 0 -67 3 -96 32 -29 29 -31 34
-25 79 8 59 28 80 45 49 6 -12 14 -19 17 -16 3 3 12 -2 20 -12 12 -15 13 -14
7 11 -6 28 4 35 24 15 8 -8 12 -9 12 -1 0 6 -6 13 -12 16 -10 3 -10 8 -2 17 9
9 17 9 35 0 22 -10 22 -10 7 3 -10 8 -18 19 -18 25 0 11 -23 22 -46 22 -7 0
-39 -25 -70 -56 -40 -41 -53 -59 -45 -67 19 -19 13 -65 -8 -72 -11 -3 -23 -15
-26 -26 -4 -11 -15 -19 -27 -19 -19 0 -20 4 -15 57 18 173 184 341 367 372 51
8 52 9 15 9 -22 1 -65 -8 -95 -18z m-67 -197 c7 -7 -41 -63 -54 -63 -15 0 -17
29 -3 49 15 21 44 28 57 14z m292 -103 c3 -5 17 -10 30 -10 13 0 27 5 30 10 3
6 17 10 31 10 30 0 30 -9 0 -115 l-22 -80 -40 0 -39 0 -22 80 c-29 106 -28
115 1 115 14 0 28 -4 31 -10z m-389 -97 c17 -17 16 -18 -25 -21 -50 -4 -59 1
-41 23 17 20 44 19 66 -2z m152 -130 l-3 -98 -113 -3 -113 -3 -19 43 c-11 24
-20 55 -20 71 l0 27 90 0 c88 0 90 1 90 23 0 32 7 37 52 37 l39 0 -3 -97z
m-194 75 c5 -10 7 -10 12 0 3 6 23 12 45 12 32 0 39 -3 39 -20 0 -19 -7 -20
-90 -20 -83 0 -90 1 -90 20 0 17 7 20 39 20 22 0 42 -6 45 -12z m504 -60 c20
-20 14 -48 -14 -58 -34 -13 -170 -13 -195 0 -18 10 -26 50 -12 63 12 13 208 8
221 -5z m-184 -100 c-21 -68 -32 -92 -42 -96 -7 -2 -3 21 9 57 12 34 25 61 31
61 5 0 6 -10 2 -22z m149 -31 c9 -30 17 -59 17 -65 0 -8 -28 -12 -90 -12 -62
0 -90 4 -90 12 0 6 8 35 17 65 l17 53 56 0 56 0 17 -53z m30 0 c19 -61 20 -67
9 -67 -5 0 -16 24 -25 53 -19 61 -20 67 -9 67 5 0 16 -24 25 -53z m-370 -32
c9 -20 17 -38 17 -40 0 -3 -29 -5 -64 -5 -63 0 -64 0 -90 40 l-26 40 73 0 73
0 17 -35z m24 20 c9 -25 -4 -29 -17 -6 -7 15 -7 21 0 21 6 0 13 -7 17 -15z"/>
<path d="M1997 1892 c-38 -41 -18 -80 62 -124 21 -12 31 -25 31 -41 0 -38 -23
-51 -78 -43 -32 4 -42 3 -32 -4 28 -18 108 -12 130 10 38 38 25 70 -47 116
-47 30 -54 38 -51 62 3 29 17 32 71 18 22 -5 28 -4 25 6 -3 7 -24 14 -49 16
-34 2 -49 -2 -62 -16z"/>
<path d="M2155 1900 c-7 -12 -2 -13 43 -10 l32 2 0 -111 c0 -92 3 -111 15
-111 12 0 15 19 15 111 l0 111 37 -4 c22 -2 38 2 41 10 5 15 -173 17 -183 2z"/>
<path d="M2377 1903 c-4 -3 -7 -57 -7 -120 0 -106 1 -113 20 -113 19 0 20 7
20 120 0 93 -3 120 -13 120 -8 0 -17 -3 -20 -7z"/>
<path d="M2445 1900 c-7 -12 -2 -13 43 -10 l32 2 0 -111 c0 -92 3 -111 15
-111 12 0 15 19 15 111 l0 111 37 -4 c22 -2 38 2 41 10 5 15 -173 17 -183 2z"/>
<path d="M2699 1887 c-45 -30 -61 -63 -56 -116 7 -67 40 -94 123 -99 39 -3 70
0 76 6 8 8 -6 9 -45 5 -52 -5 -58 -4 -86 25 -25 24 -31 39 -31 72 0 83 51 130
119 110 37 -10 47 -8 36 9 -12 20 -100 13 -136 -12z"/>
<path d="M2890 1790 c0 -98 3 -120 15 -120 10 0 15 15 17 58 l3 57 53 3 52 3
0 -60 c0 -54 2 -61 20 -61 19 0 20 7 20 121 0 109 -2 120 -17 117 -14 -2 -19
-15 -21 -56 l-3 -53 -52 3 -52 3 -3 53 c-2 37 -7 52 -18 52 -11 0 -14 -22 -14
-120z"/>
<path d="M3169 1887 c-45 -30 -61 -63 -56 -116 7 -67 40 -94 123 -99 39 -3 70
0 76 6 8 8 -6 9 -45 5 -52 -5 -58 -4 -86 25 -25 24 -31 39 -31 72 0 83 51 130
119 110 37 -10 47 -8 36 9 -12 20 -100 13 -136 -12z"/>
<path d="M3360 1790 l0 -120 65 0 c42 0 65 4 65 11 0 8 -12 10 -36 6 -62 -10
-64 -7 -64 114 0 90 -3 109 -15 109 -12 0 -15 -20 -15 -120z"/>
<path d="M3530 1791 c0 -115 1 -121 20 -121 20 0 21 5 18 117 -3 103 -5 118
-20 121 -16 3 -18 -8 -18 -117z"/>
<path d="M3674 1891 c-46 -28 -64 -59 -64 -109 0 -37 6 -50 34 -78 31 -31 39
-34 94 -34 34 0 63 4 66 8 3 5 -17 7 -44 4 -44 -4 -52 -2 -80 26 -25 26 -30
38 -30 79 0 82 45 121 115 102 39 -11 59 -4 35 11 -25 16 -93 11 -126 -9z"/>
<path d="M3860 1790 c0 -100 3 -120 15 -120 12 0 15 13 15 58 l1 57 52 -58
c37 -40 59 -57 77 -57 22 0 18 7 -40 66 l-65 65 55 49 c30 26 51 52 47 57 -5
4 -32 -18 -60 -50 -29 -32 -55 -57 -59 -57 -5 0 -8 25 -8 55 0 42 -3 55 -15
55 -12 0 -15 -20 -15 -120z"/>
</g>
</svg>
